<svg xmlns="http://www.w3.org/2000/svg" xmlns:xlink="http://www.w3.org/1999/xlink" viewBox="0,0,256,256" width="128px" height="128px" fill-rule="nonzero"><g fill="#ffffff" fill-rule="nonzero" stroke="none" stroke-width="1" stroke-linecap="butt" stroke-linejoin="miter" stroke-miterlimit="10" stroke-dasharray="" stroke-dashoffset="0" font-family="none" font-weight="none" font-size="none" text-anchor="none" style="mix-blend-mode: normal"><g transform="scale(8.53333,8.53333)"><path d="M11,3c-1.105,0 -2,0.895 -2,2c0,0.017 0.00586,0.03378 0.00586,0.05078c-0.168,-0.019 -0.33286,-0.05078 -0.50586,-0.05078c-2.485,0 -4.5,2.015 -4.5,4.5c0,0.471 0.09156,0.9158 0.22656,1.3418c-0.791,0.528 -1.41478,1.2792 -1.80078,2.1582h5.57422v-2.27734c-0.595,-0.347 -1,-0.98466 -1,-1.72266c0,-1.105 0.895,-2 2,-2c1.105,0 2,0.895 2,2c0,0.738 -0.405,1.37566 -1,1.72266v3.27734c0,0.553 -0.448,1 -1,1h-7c0,1.735 0.88456,3.2612 2.22656,4.1582c-0.135,0.426 -0.22656,0.8708 -0.22656,1.3418c0,2.33 1.77788,4.22212 4.04688,4.45313c0.214,1.163 1.22813,2.04688 2.45313,2.04688c1.381,0 2.5,-1.119 2.5,-2.5v-3.5h-2.27734c-0.347,0.595 -0.98466,1 -1.72266,1c-1.105,0 -2,-0.895 -2,-2c0,-1.105 0.895,-2 2,-2c0.738,0 1.37566,0.405 1.72266,1h2.27734v-14c0,-1.105 -0.895,-2 -2,-2zM17,3c-1.105,0 -2,0.895 -2,2v4h2.27734c0.347,-0.595 0.98466,-1 1.72266,-1c1.105,0 2,0.895 2,2c0,1.105 -0.895,2 -2,2c-0.738,0 -1.37566,-0.405 -1.72266,-1h-2.27734v13.5c0,1.381 1.119,2.5 2.5,2.5c1.225,0 2.23913,-0.88387 2.45313,-2.04687c1.762,-0.179 3.27041,-1.32412 3.81641,-2.95312h-4.76953c-0.552,0 -1,-0.447 -1,-1v-2.27734c-0.595,-0.346 -1,-0.98366 -1,-1.72266c0,-1.105 0.895,-2 2,-2c1.105,0 2,0.895 2,2c0,0.738 -0.405,1.37566 -1,1.72266v1.27734h3.96289c-0.096,-0.936 -0.36328,-1.33789 -0.36328,-1.33789c1.411,-0.619 2.40039,-2.02511 2.40039,-3.66211c0,-1.735 -0.88456,-3.2612 -2.22656,-4.1582c0.135,-0.426 0.22656,-0.8708 0.22656,-1.3418c0,-2.485 -2.015,-4.5 -4.5,-4.5c-0.173,0 -0.33786,0.03178 -0.50586,0.05078c0,-0.017 0.00586,-0.03378 0.00586,-0.05078c0,-1.105 -0.895,-2 -2,-2z"></path></g></g></svg>