<svg xmlns="http://www.w3.org/2000/svg" xmlns:xlink="http://www.w3.org/1999/xlink" viewBox="0,0,256,256" width="128px" height="128px" fill-rule="nonzero"><g fill="#ffffff" fill-rule="nonzero" stroke="none" stroke-width="1" stroke-linecap="butt" stroke-linejoin="miter" stroke-miterlimit="10" stroke-dasharray="" stroke-dashoffset="0" font-family="none" font-weight="none" font-size="none" text-anchor="none" style="mix-blend-mode: normal"><g transform="scale(8.53333,8.53333)"><path d="M7,2c-1.105,0 -2,0.895 -2,2v14c0,1.105 0.895,2 2,2h16c1.105,0 2,-0.895 2,-2v-14c0,-1.105 -0.895,-2 -2,-2zM15,4c1.145,0 1.5,0.8125 1.5,0.8125c1.023,0 1.5,1.1215 1.5,2.4375c0,0.656 -0.26367,1.19922 -0.26367,1.19922c0.106,0.066 0.28033,0.27544 0.23633,0.64844c-0.082,0.695 -0.36011,0.87172 -0.53711,0.88672c-0.068,0.648 -0.71055,1.47666 -0.93555,1.59766v1.08399c0.5,1.626 4.5,0.54198 4.5,4.33398h-12c0,-3.792 4,-2.70703 4.5,-4.33203v-1.08399c-0.225,-0.121 -0.86755,-0.95161 -0.93555,-1.59961c-0.177,-0.015 -0.45511,-0.18977 -0.53711,-0.88477c-0.044,-0.373 0.13033,-0.58439 0.23633,-0.65039c0,0 -0.26367,-0.60027 -0.26367,-1.19727c0,-1.777 0.879,-3.25195 3,-3.25195zM5,21.44336v4.55664c0,1.105 0.895,2 2,2h16c1.105,0 2,-0.895 2,-2v-4.55664c-0.591,0.344 -1.268,0.55664 -2,0.55664h-16c-0.732,0 -1.409,-0.21264 -2,-0.55664zM22,24c0.552,0 1,0.448 1,1c0,0.552 -0.448,1 -1,1c-0.552,0 -1,-0.448 -1,-1c0,-0.552 0.448,-1 1,-1z"></path></g></g></svg>