<svg xmlns="http://www.w3.org/2000/svg" xmlns:xlink="http://www.w3.org/1999/xlink" viewBox="0,0,256,256" width="128px" height="128px" fill-rule="nonzero"><g fill="#ffffff" fill-rule="nonzero" stroke="none" stroke-width="1" stroke-linecap="butt" stroke-linejoin="miter" stroke-miterlimit="10" stroke-dasharray="" stroke-dashoffset="0" font-family="none" font-weight="none" font-size="none" text-anchor="none" style="mix-blend-mode: normal"><g transform="scale(8.53333,8.53333)"><path d="M22,2c-1.603,0 -3.10819,0.62481 -4.24219,1.75781l-2,2c-1.133,1.134 -1.75781,2.63919 -1.75781,4.24219c0,1.26427 0.3934,2.46397 1.11328,3.47266l-1.64062,1.64063c-1.0088,-0.71953 -2.20915,-1.11328 -3.47266,-1.11328c-1.603,0 -3.10819,0.62481 -4.24219,1.75781l-2,2c-1.133,1.134 -1.75781,2.63919 -1.75781,4.24219c0,1.603 0.62481,3.10819 1.75781,4.24219c1.133,1.134 2.63919,1.75781 4.24219,1.75781c1.603,0 3.10819,-0.62481 4.24219,-1.75781l2,-2c1.133,-1.134 1.75781,-2.63919 1.75781,-4.24219c0,-0.551 -0.0787,-1.08847 -0.2207,-1.60547l-1.79883,1.79883c-0.046,0.959 -0.42234,1.90377 -1.15234,2.63477l-2,2c-1.56,1.56 -4.09725,1.56 -5.65625,0c-1.559,-1.56 -1.56,-4.09725 0,-5.65625l2,-2c0.78,-0.78 1.80508,-1.16797 2.83008,-1.16797c0.70176,0 1.39669,0.19525 2.01953,0.56055l-2.72852,2.72852c-0.26124,0.25082 -0.36647,0.62327 -0.27512,0.97371c0.09136,0.35044 0.36503,0.62411 0.71547,0.71547c0.35044,0.09136 0.72289,-0.01388 0.97371,-0.27512l10,-10c0.29576,-0.28749 0.38469,-0.72707 0.22393,-1.10691c-0.16075,-0.37985 -0.53821,-0.62204 -0.9505,-0.60988c-0.2598,0.00774 -0.50638,0.11632 -0.6875,0.30273l-2.72852,2.72852c-0.9012,-1.53312 -0.70726,-3.53577 0.60742,-4.84961l2,-2c0.78,-0.78 1.80313,-1.16797 2.82813,-1.16797c1.025,0 2.04812,0.38897 2.82813,1.16797c1.56,1.56 1.56,4.09725 0,5.65625l-2,2c-0.73,0.73 -1.67577,1.10634 -2.63477,1.15234l-1.79883,1.79883c0.517,0.142 1.05447,0.2207 1.60547,0.2207c1.603,0 3.10819,-0.62481 4.24219,-1.75781l2,-2c1.133,-1.134 1.75781,-2.63919 1.75781,-4.24219c0,-1.603 -0.62481,-3.10819 -1.75781,-4.24219c-1.134,-1.133 -2.63919,-1.75781 -4.24219,-1.75781z"></path></g></g></svg>