<svg xmlns="http://www.w3.org/2000/svg" xmlns:xlink="http://www.w3.org/1999/xlink" viewBox="0,0,256,256" width="128px" height="128px" fill-rule="nonzero"><g fill="#ffffff" fill-rule="nonzero" stroke="none" stroke-width="1" stroke-linecap="butt" stroke-linejoin="miter" stroke-miterlimit="10" stroke-dasharray="" stroke-dashoffset="0" font-family="none" font-weight="none" font-size="none" text-anchor="none" style="mix-blend-mode: normal"><g transform="scale(8.53333,8.53333)"><path d="M24,4h-18c-1.105,0 -2,0.895 -2,2v18c0,1.105 0.895,2 2,2h18c1.105,0 2,-0.895 2,-2v-18c0,-1.105 -0.895,-2 -2,-2zM9,23c-1.105,0 -2,-0.895 -2,-2c0,-1.105 0.895,-2 2,-2c1.105,0 2,0.895 2,2c0,1.105 -0.895,2 -2,2zM16,23c-0.552,0 -1,-0.447 -1,-1c0,-3.859 -3.14,-7 -7,-7c-0.552,0 -1,-0.447 -1,-1c0,-0.553 0.448,-1 1,-1c4.962,0 9,4.037 9,9c0,0.553 -0.448,1 -1,1zM22,23c-0.552,0 -1,-0.447 -1,-1c0,-7.168 -5.832,-13 -13,-13c-0.552,0 -1,-0.447 -1,-1c0,-0.553 0.448,-1 1,-1c8.271,0 15,6.729 15,15c0,0.553 -0.448,1 -1,1z"></path></g></g></svg>